<svg version="1.2" xmlns="http://www.w3.org/2000/svg" viewBox="0 0 1024 1024" width="1024" height="1024">
	<title>Soothing pastel rose logo, cute and adorable</title>
	<style>
		.s0 { opacity: 1;fill: #f8b3bf } 
		.s1 { opacity: .7;fill: #caaab7 } 
		.s2 { opacity: 1;fill: #bb768a } 
	</style>
	<g id="Background">
		<path id="Path 0" class="s0" d="m497 333l3-1h8l2 1 12 3 27 20 24 25 11 18-5 11-10 5-32-30-19-6h-6l-30 8-22 12-5-1-2-15-16 7 1-9 16-25 26-19zm-146 115l8-26 20-37 25-8 31-4-10 27-7 6-7 13-4 33 9 36 28 47-25-2-28-16-26-27-14-30zm281-16l1-6 5-4 8 1 29 25 9 15 1 1v2l1 1v10l-1 2-6 24-13 24-17 19-22 14-26 7h-33l-50-13-13-6v-4l57-10 3-1 26-7 15-14 15-24 8-22 3-21zm-168 177l-19-7-17-23-20-35v-5h10l160 38-4 6-36 17-35 9-1 1-3 1h-27l-1-1h-6z"/>
		<path id="Path 1" fill-rule="evenodd" class="s1" d="m497 333v-1h3zm13 0l-2-1h2zm175 133h1v1h-1zm0 13l1-2v2z"/>
		<path id="Path 2" class="s0" d="m563 350l40 8 27 12 14 39-20 16-6 12-15-38-14-10-37-37 2-2zm-93 78l-3 1-1-5 15-23 16-13 11-4h12l15 12 11 19-3 8-10 2-3-8-9-9-16-7-2 1v1l7 3v4l-10 6-7 9h-9l-3 1 2 1 45 4 21-9-3 19-5 6-8 3-23-4-36-15 1-4zm-47 43l-3-7v-27l4-18 9-18 8-8 7-2 7 33 13 33 13 24 24 31-3 2-38-18zm184-15l-2 22-7 23-8 14-17 12-43 7-27-33-3-15 65-50 18-20 10-18 6 3 5 12 4 39z"/>
		<path id="Path 3" class="s2" d="m470 428l5-1-1 4 36 15 23 4-6 7-36 22-12-12-12-30v-5-3zm35 84l15 18-3 5-19 5-8 7-19-3-4-5-12-5-7-6-5-10-5-2-12-25-3-20 41 25 38 18z"/>
		<path id="Path 4" class="s1" d="m483 427l-2-1 3-1zm201 36h1v1h-1zm-220 146h1v1h-1zm38 0h1v1h-1zm-31 1h1v1h-1zm31-208h1v1h-1z"/>
	</g>
</svg>